<?xml version="1.0" encoding="UTF-8" standalone="no"?>
<svg
   xmlns:dc="http://purl.org/dc/elements/1.1/"
   xmlns:cc="http://creativecommons.org/ns#"
   xmlns:rdf="http://www.w3.org/1999/02/22-rdf-syntax-ns#"
   xmlns:svg="http://www.w3.org/2000/svg"
   xmlns="http://www.w3.org/2000/svg"
   xmlns:sodipodi="http://sodipodi.sourceforge.net/DTD/sodipodi-0.dtd"
   xmlns:inkscape="http://www.inkscape.org/namespaces/inkscape"
   width="16"
   height="16"
   viewBox="0 0 16 16"
   fill="none"
   version="1.1"
   id="svg18"
   sodipodi:docname="omf_favicon.svg"
   inkscape:version="1.0.1 (3bc2e813f5, 2020-09-07)"
   inkscape:export-filename="C:\Users\maria\Documents\2_TRAVAIL\0_ALTERNANCE\OC\Projet_3\P3_code\images\logo\omf_favicon.png"
   inkscape:export-xdpi="96"
   inkscape:export-ydpi="96">
  <metadata
     id="metadata24">
    <rdf:RDF>
      <cc:Work
         rdf:about="">
        <dc:format>image/svg+xml</dc:format>
        <dc:type
           rdf:resource="http://purl.org/dc/dcmitype/StillImage" />
        <dc:title></dc:title>
      </cc:Work>
    </rdf:RDF>
  </metadata>
  <defs
     id="defs22" />
  <sodipodi:namedview
     pagecolor="#ffffff"
     bordercolor="#666666"
     borderopacity="1"
     objecttolerance="10"
     gridtolerance="10"
     guidetolerance="10"
     inkscape:pageopacity="0"
     inkscape:pageshadow="2"
     inkscape:window-width="2400"
     inkscape:window-height="1271"
     id="namedview20"
     showgrid="false"
     inkscape:zoom="41.935761"
     inkscape:cx="16.998164"
     inkscape:cy="8.5266341"
     inkscape:window-x="-9"
     inkscape:window-y="-9"
     inkscape:window-maximized="1"
     inkscape:current-layer="svg18" />
  <path
     d="m 3.0575096,6.5473286 c 0.5627182,0 0.9764817,0.1137832 1.2412903,0.3413548 0.2689462,0.2275699 0.4034193,0.5254796 0.4034193,0.8937289 0,0.1241291 -0.016551,0.2627399 -0.049652,0.4158323 -0.078615,0.339286 -0.2255011,0.6371956 -0.440658,0.8937286 -0.2151567,0.252396 -0.4799652,0.448934 -0.7944254,0.589613 -0.3103225,0.136542 -0.6475398,0.204813 -1.0116516,0.204813 -0.5751328,0 -1.0013092,-0.113785 -1.2785306,-0.341355 -0.27308386,-0.231707 -0.40962665,-0.537892 -0.40962665,-0.9185545 0,-0.1282666 0.0165505,-0.271015 0.0496516,-0.4282451 C 0.84594247,7.8755091 0.99489731,7.5900124 1.2141919,7.3417543 1.4376241,7.0893586 1.7086391,6.8948898 2.027237,6.7583479 2.3499724,6.6176684 2.6933978,6.5473286 3.0575096,6.5473286 Z m -0.018619,0.5523741 c -0.08689,0 -0.1799871,0.078615 -0.2792904,0.2358452 -0.095165,0.1530924 -0.2089505,0.4447957 -0.3413548,0.8751096 -0.132406,0.430314 -0.1986081,0.7323613 -0.1986081,0.9061417 0,0.09103 0.014481,0.153093 0.043445,0.186194 0.028964,0.02896 0.068271,0.04345 0.1179243,0.04345 0.08689,0.0083 0.1758494,-0.0662 0.2668774,-0.223433 C 2.74305,8.9657756 2.8609722,8.6595906 3.0016517,8.2044508 3.1299185,7.8031004 3.1940518,7.5113971 3.1940518,7.3293412 c 0,-0.08689 -0.014481,-0.146886 -0.043445,-0.179987 -0.024826,-0.033101 -0.062064,-0.049652 -0.1117162,-0.049652 z"
     fill="#101010"
     id="path2"
     style="stroke-width:0.172401" />
  <path
     d="m 10.752613,8.974051 c -0.0083,0.016551 -0.01242,0.041377 -0.01242,0.074477 0,0.02896 0.0062,0.05172 0.01862,0.06827 0.01655,0.01655 0.03723,0.02483 0.06207,0.02483 0.04965,0 0.09103,-0.02069 0.124129,-0.06206 0.03723,-0.04551 0.06206,-0.06827 0.07448,-0.06827 0.02068,0 0.03724,0.01448 0.04965,0.04345 0.01241,0.02483 0.01862,0.05586 0.01862,0.0931 0.0041,0.119991 -0.03517,0.237914 -0.117924,0.353767 -0.08275,0.111717 -0.204812,0.204814 -0.36618,0.279291 -0.15723,0.07034 -0.347561,0.10551 -0.570994,0.10551 -0.2730834,0 -0.4903091,-0.06206 -0.6516768,-0.186194 C 9.2196196,9.571955 9.1368668,9.402312 9.1327293,9.191293 c 0,-0.153093 0.037239,-0.3248047 0.1117161,-0.5151358 L 9.5858002,7.7824123 c 0.020688,-0.05379 0.031032,-0.097234 0.031032,-0.1303354 0,-0.05379 -0.018619,-0.095166 -0.055858,-0.1241291 -0.033101,-0.033101 -0.074477,-0.049652 -0.1241291,-0.049652 -0.070339,0 -0.1427483,0.031032 -0.2172257,0.093097 C 9.1451424,7.6334578 9.07894,7.7306918 9.0210131,7.8630961 L 8.6796583,8.974051 c -0.00828,0.016551 -0.012413,0.041377 -0.012413,0.074477 0,0.02896 0.00621,0.05172 0.018619,0.06827 0.016551,0.01655 0.037239,0.02483 0.062064,0.02483 0.049652,0 0.091028,-0.02069 0.124129,-0.06206 0.037239,-0.04551 0.062064,-0.06827 0.074477,-0.06827 0.020688,0 0.037239,0.01448 0.049651,0.04345 0.012413,0.02483 0.018619,0.05586 0.018619,0.0931 0.00414,0.119991 -0.035169,0.237914 -0.1179224,0.353768 -0.082752,0.111716 -0.2048128,0.204813 -0.3661806,0.27929 -0.1572302,0.07034 -0.3475612,0.10551 -0.5709935,0.10551 -0.2730839,0 -0.4903097,-0.06206 -0.6516774,-0.186194 C 7.1466648,9.571955 7.0639122,9.402312 7.0597745,9.191293 c 0,-0.153093 0.037239,-0.3248047 0.1117162,-0.5151358 L 7.5128455,7.7824123 c 0.020688,-0.05379 0.031032,-0.097234 0.031032,-0.1303354 0,-0.05379 -0.018619,-0.095166 -0.055858,-0.1241291 -0.033101,-0.033101 -0.074477,-0.049652 -0.124129,-0.049652 -0.070339,0 -0.1427484,0.031032 -0.2172258,0.093097 -0.074477,0.057927 -0.1365419,0.1530925 -0.1861935,0.2854968 L 6.5508455,9.1850702 c -0.016551,0.04551 -0.024826,0.08896 -0.024826,0.130336 0,0.04965 0.010344,0.09103 0.031032,0.124129 0.020688,0.02896 0.049652,0.06 0.08689,0.0931 0.028964,0.02483 0.049651,0.04758 0.062064,0.06827 0.012413,0.02069 0.014481,0.04551 0.00621,0.07448 -0.016551,0.05378 -0.055858,0.09309 -0.1179225,0.117922 -0.062064,0.02483 -0.159299,0.03723 -0.2917033,0.03723 H 4.8875166 c -0.1075785,0 -0.1841247,-0.01655 -0.2296387,-0.04965 -0.049652,-0.03723 -0.068271,-0.08482 -0.055858,-0.142748 0.016551,-0.04965 0.059996,-0.0931 0.1303355,-0.130336 0.062065,-0.0331 0.113785,-0.07241 0.1551613,-0.117923 0.041377,-0.04551 0.076546,-0.117922 0.1055097,-0.217225 L 5.5454005,7.3789927 c 0.00828,-0.020688 0.012413,-0.049652 0.012413,-0.08689 0,-0.045514 -0.010344,-0.080684 -0.031032,-0.1055097 C 5.5102305,7.161767 5.4812675,7.130735 5.4398915,7.093497 5.3985155,7.060396 5.3695515,7.031432 5.3530015,7.006607 5.3364495,6.98178 5.3343815,6.948679 5.3467915,6.907303 5.3716175,6.812137 5.5019528,6.7293847 5.7377979,6.659045 5.9736431,6.584568 6.2198323,6.5473289 6.4763656,6.5473289 c 0.2027441,0 0.362043,0.055858 0.4778968,0.1675742 0.1199939,0.1117158 0.1779207,0.2648082 0.1737831,0.459277 C 7.2976885,6.938335 7.4756067,6.7748984 7.6618003,6.6838705 7.8521314,6.5928426 8.0569444,6.5473286 8.276239,6.5473286 c 0.2399827,0 0.4344516,0.070339 0.5834064,0.2110193 0.1530925,0.1365419 0.237914,0.316529 0.2544645,0.5399613 C 9.2920281,7.01695 9.4823593,6.8224812 9.6851034,6.7149028 9.8878477,6.6031866 10.109211,6.5473286 10.349194,6.5473286 c 0.252396,0 0.45514,0.076546 0.608232,0.2296386 0.15723,0.1530925 0.235845,0.3516989 0.235845,0.5958193 0,0.1282668 -0.02069,0.2544645 -0.06206,0.3785936 z"
     fill="#101010"
     id="path6"
     style="stroke-width:0.172401" />
  <path
     d="m 13.907077,5.2439731 c 0.442727,0 0.773738,0.068271 0.993032,0.2048136 0.223433,0.1324043 0.335149,0.2958408 0.335149,0.4903097 0,0.1572301 -0.0662,0.2792903 -0.198607,0.3661806 -0.128266,0.082752 -0.29791,0.124129 -0.508929,0.124129 -0.194469,0 -0.345492,-0.047583 -0.453071,-0.1427484 -0.107578,-0.095166 -0.161368,-0.2130881 -0.161368,-0.3537678 0,-0.08689 0.02689,-0.1779182 0.08069,-0.2730838 -0.124129,0 -0.22757,0.031032 -0.310322,0.093097 -0.08275,0.057926 -0.146887,0.1592989 -0.1924,0.3041161 -0.02483,0.091028 -0.03724,0.1758494 -0.03724,0.2544645 0,0.099303 0.01655,0.1779183 0.04965,0.2358452 0.03723,0.053789 0.08896,0.080684 0.155161,0.080684 h 0.36618 c 0.215157,0 0.322736,0.066202 0.322736,0.1986064 0,0.016551 -0.0041,0.041377 -0.01242,0.074477 -0.02483,0.091028 -0.07655,0.1592989 -0.155162,0.2048129 -0.07448,0.045514 -0.188262,0.068271 -0.341354,0.068271 h -0.186194 l -0.614441,2.0108901 c -0.01242,0.04965 -0.01862,0.0931 -0.01862,0.130336 0,0.05379 0.01034,0.09723 0.03103,0.130335 0.02069,0.02896 0.04965,0.05793 0.08689,0.08689 0.02896,0.02896 0.04965,0.05379 0.06206,0.07448 0.01242,0.01655 0.01448,0.03931 0.0062,0.06827 -0.02069,0.05378 -0.06206,0.09309 -0.124129,0.117923 -0.06206,0.02483 -0.157229,0.03724 -0.285496,0.03724 h -1.415071 c -0.107578,0 -0.186194,-0.01655 -0.235845,-0.04965 -0.04965,-0.03724 -0.0662,-0.08482 -0.04965,-0.142749 0.01655,-0.04965 0.05999,-0.0931 0.130335,-0.130335 0.06207,-0.0331 0.113785,-0.07241 0.155161,-0.117923 0.04138,-0.04551 0.07655,-0.117922 0.10551,-0.217226 l 0.484104,-1.5888549 c 0.02069,-0.062064 0.03104,-0.1261978 0.03104,-0.1923999 0,-0.082753 -0.01862,-0.1468861 -0.05586,-0.1924001 -0.0331,-0.049652 -0.08482,-0.1034408 -0.155162,-0.1613677 -0.04551,-0.037239 -0.08069,-0.068271 -0.105509,-0.093097 -0.02069,-0.028964 -0.03104,-0.062064 -0.03104,-0.099303 -0.0041,-0.078615 0.02276,-0.1344731 0.08069,-0.1675742 0.06206,-0.033101 0.177917,-0.049652 0.34756,-0.049652 h 0.155162 c -0.02896,-0.1034409 -0.04344,-0.2068818 -0.04344,-0.3103226 0,-0.1034409 0.01862,-0.2110194 0.05586,-0.3227355 0.07862,-0.2110193 0.24619,-0.3889376 0.502723,-0.5337565 0.260657,-0.1448162 0.645457,-0.2172247 1.154386,-0.2172247 z"
     fill="#101010"
     id="path10"
     style="stroke-width:0.172401" />
</svg>
