<?xml version="1.0" encoding="UTF-8" standalone="no"?>
<svg
   xmlns:dc="http://purl.org/dc/elements/1.1/"
   xmlns:cc="http://creativecommons.org/ns#"
   xmlns:rdf="http://www.w3.org/1999/02/22-rdf-syntax-ns#"
   xmlns:svg="http://www.w3.org/2000/svg"
   xmlns="http://www.w3.org/2000/svg"
   xmlns:sodipodi="http://sodipodi.sourceforge.net/DTD/sodipodi-0.dtd"
   xmlns:inkscape="http://www.inkscape.org/namespaces/inkscape"
   width="85"
   height="30"
   viewBox="0 0 85 30"
   fill="none"
   version="1.1"
   id="svg18"
   sodipodi:docname="omf_favicon.svg"
   inkscape:version="1.0.1 (3bc2e813f5, 2020-09-07)">
  <metadata
     id="metadata24">
    <rdf:RDF>
      <cc:Work
         rdf:about="">
        <dc:format>image/svg+xml</dc:format>
        <dc:type
           rdf:resource="http://purl.org/dc/dcmitype/StillImage" />
        <dc:title></dc:title>
      </cc:Work>
    </rdf:RDF>
  </metadata>
  <defs
     id="defs22" />
  <sodipodi:namedview
     pagecolor="#ffffff"
     bordercolor="#666666"
     borderopacity="1"
     objecttolerance="10"
     gridtolerance="10"
     guidetolerance="10"
     inkscape:pageopacity="0"
     inkscape:pageshadow="2"
     inkscape:window-width="2400"
     inkscape:window-height="1271"
     id="namedview20"
     showgrid="false"
     inkscape:zoom="7.4132653"
     inkscape:cx="98"
     inkscape:cy="17"
     inkscape:window-x="-9"
     inkscape:window-y="-9"
     inkscape:window-maximized="1"
     inkscape:current-layer="svg18" />
  <path
     d="m 13.932,7.956 c 3.264,0 5.664,0.65999 7.2,1.98 1.56,1.32 2.34,3.048 2.34,5.184 0,0.72 -0.096,1.524 -0.288,2.412 -0.456,1.968 -1.308,3.696 -2.556,5.184 -1.248,1.464 -2.784,2.604 -4.608,3.42 -1.8,0.792 -3.756,1.188 -5.868,1.188 -3.33601,0 -5.80801,-0.66 -7.41601,-1.98 -1.584,-1.344 -2.376005,-3.12 -2.376005,-5.328 0,-0.744 0.096,-1.572 0.288,-2.484 C 1.10399,15.66 1.96799,14.004 3.23999,12.564 4.53599,11.1 6.10799,9.972 7.95599,9.18 9.82799,8.364 11.82,7.956 13.932,7.956 Z m -0.108,3.204 c -0.504,0 -1.044,0.456 -1.62,1.368 -0.552,0.888 -1.212,2.58 -1.98,5.076 -0.76801,2.496 -1.15201,4.248 -1.15201,5.256 0,0.528 0.084,0.888 0.252,1.08 0.168,0.168 0.396,0.252 0.68401,0.252 0.504,0.048 1.02,-0.384 1.548,-1.296 0.552,-0.912 1.236,-2.688 2.052,-5.328 0.744,-2.328 1.116,-4.02 1.116,-5.076 0,-0.504 -0.084,-0.852 -0.252,-1.044 -0.144,-0.192 -0.36,-0.288 -0.648,-0.288 z"
     fill="#101010"
     id="path2" />
  <path
     d="m 58.566802,22.032 c -0.048,0.096 -0.072,0.24 -0.072,0.432 0,0.168 0.036,0.3 0.108,0.396 0.096,0.096 0.216,0.144 0.36,0.144 0.288,0 0.528,-0.12 0.72,-0.36 0.216,-0.264 0.36,-0.396 0.432,-0.396 0.12,0 0.216,0.084 0.288,0.252 0.072,0.144 0.108,0.324 0.108,0.54 0.024,0.696 -0.204,1.38 -0.684,2.052 -0.48,0.648 -1.188,1.188 -2.124,1.62 -0.912,0.408 -2.016,0.612 -3.312,0.612 -1.584,0 -2.844,-0.36 -3.78,-1.08 -0.936,-0.744 -1.416,-1.728 -1.44,-2.952 0,-0.888 0.216,-1.884 0.648,-2.988 l 1.98,-5.184 c 0.12,-0.312 0.18,-0.564 0.18,-0.756 0,-0.312 -0.108,-0.552 -0.324,-0.72 -0.192,-0.192 -0.432,-0.288 -0.72,-0.288 -0.408,0 -0.828,0.18 -1.26,0.54 -0.432,0.36 -0.816,0.924 -1.152,1.692 l -1.98,6.444 c -0.048,0.096 -0.072,0.24 -0.072,0.432 0,0.168 0.036,0.3 0.108,0.396 0.096,0.096 0.216,0.144 0.36,0.144 0.288,0 0.528,-0.12 0.72,-0.36 0.216,-0.264 0.36,-0.396 0.432,-0.396 0.12,0 0.216,0.084 0.288,0.252 0.072,0.144 0.108,0.324 0.108,0.54 0.024,0.696 -0.204,1.38 -0.684,2.052 -0.48,0.648 -1.188,1.188 -2.124,1.62 -0.912,0.408 -2.016,0.612 -3.312,0.612 -1.584,0 -2.844,-0.36 -3.78,-1.08 -0.936,-0.744 -1.416,-1.728 -1.44,-2.952 0,-0.888 0.216,-1.884 0.648,-2.988 l 1.98,-5.184 c 0.12,-0.312 0.18,-0.564 0.18,-0.756 0,-0.312 -0.108,-0.552 -0.324,-0.72 -0.192,-0.192 -0.432,-0.288 -0.72,-0.288 -0.408,0 -0.828,0.18 -1.26,0.54 -0.432,0.336 -0.792,0.888 -1.08,1.656 l -2.376,7.704 c -0.096,0.264 -0.144,0.516 -0.144,0.756 0,0.288 0.06,0.528 0.18,0.72 0.12,0.168 0.288,0.348 0.504,0.54 0.168,0.144 0.288,0.276 0.36,0.396 0.072,0.12 0.084,0.264 0.036,0.432 -0.096,0.312 -0.324,0.54 -0.684,0.684 -0.36,0.144 -0.924,0.216 -1.692,0.216 h -8.208 c -0.624,0 -1.068,-0.096 -1.332,-0.288 -0.288,-0.216 -0.396,-0.492 -0.324,-0.828 0.096,-0.288 0.348,-0.54 0.756,-0.756 0.36,-0.192 0.66,-0.42 0.9,-0.684 0.24,-0.264 0.444,-0.684 0.612,-1.26 l 3.204,-10.404 c 0.048,-0.12 0.072,-0.288 0.072,-0.504 0,-0.264 -0.06,-0.468 -0.18,-0.612 -0.096,-0.144 -0.264,-0.324 -0.504,-0.54 -0.24,-0.192 -0.408,-0.36 -0.504,-0.504 -0.096,-0.144 -0.108,-0.336 -0.036,-0.576 0.144,-0.552 0.9,-1.032 2.268,-1.44 1.368,-0.432 2.796,-0.648 4.284,-0.648 1.176,0 2.1,0.324 2.772,0.972 0.696,0.648 1.032,1.536 1.008,2.664 0.984,-1.368 2.016,-2.316 3.096,-2.844 1.104,-0.528 2.292,-0.792 3.564,-0.792 1.392,0 2.52,0.408 3.384,1.224 0.888,0.792 1.38,1.836 1.476,3.132 1.032,-1.632 2.136,-2.76 3.312,-3.384 1.176,-0.648 2.46,-0.972 3.852,-0.972 1.464,0 2.64,0.444 3.528,1.332 0.912,0.888 1.368,2.04 1.368,3.456 0,0.744 -0.12,1.476 -0.36,2.196 z"
     fill="#101010"
     id="path6" />
  <path
     d="m 76.864004,0.395996 c 2.568,0 4.488,0.396 5.76,1.188004 1.296,0.768 1.944,1.716 1.944,2.844 0,0.912 -0.384,1.62 -1.152,2.124 -0.744,0.48 -1.728,0.72 -2.952,0.72 -1.128,0 -2.004,-0.276 -2.628,-0.828 -0.624,-0.552 -0.936,-1.236 -0.936,-2.052 0,-0.504 0.156,-1.032 0.468,-1.584 -0.72,0 -1.32,0.18 -1.8,0.54 -0.48,0.336 -0.852,0.924 -1.116,1.764 -0.144,0.528 -0.216,1.02 -0.216,1.476 0,0.576 0.096,1.032 0.288,1.368 0.216,0.312 0.516,0.468 0.9,0.468 h 2.124 c 1.248,0 1.872,0.384 1.872,1.152 0,0.096 -0.024,0.24 -0.072,0.432 -0.144,0.528 -0.444,0.924 -0.9,1.188 -0.432,0.264 -1.092,0.396 -1.98,0.396 h -1.08 l -3.564,11.664 c -0.072,0.288 -0.108,0.54 -0.108,0.756 0,0.312 0.06,0.564 0.18,0.756 0.12,0.168 0.288,0.336 0.504,0.504 0.168,0.168 0.288,0.312 0.36,0.432 0.072,0.096 0.084,0.228 0.036,0.396 -0.12,0.312 -0.36,0.54 -0.72,0.684 -0.36,0.144 -0.912,0.216 -1.656,0.216 h -8.208 c -0.624,0 -1.08,-0.096 -1.368,-0.288 -0.288,-0.216 -0.384,-0.492 -0.288,-0.828 0.096,-0.288 0.348,-0.54 0.756,-0.756 0.36,-0.192 0.66,-0.42 0.9,-0.684 0.24,-0.264 0.444,-0.684 0.612,-1.26 l 2.808,-9.216 c 0.12,-0.36 0.18,-0.732 0.18,-1.116 0,-0.48 -0.108,-0.852 -0.324,-1.116 -0.192,-0.288 -0.492,-0.6 -0.9,-0.936 -0.264,-0.216 -0.468,-0.396 -0.612,-0.54 -0.12,-0.168 -0.18,-0.36 -0.18,-0.576 -0.024,-0.456 0.132,-0.78 0.468,-0.972 0.36,-0.192 1.032,-0.288 2.016,-0.288 h 0.9 c -0.168,-0.6 -0.252,-1.2 -0.252,-1.8 0,-0.6 0.108,-1.224 0.324,-1.872 0.456,-1.224 1.428,-2.256 2.916,-3.09601 1.512,-0.839994 3.744,-1.259994 6.696,-1.259994 z"
     fill="#101010"
     id="path10" />
</svg>
